<svg width="12" height="18" viewBox="0 0 12 18" fill="none" xmlns="http://www.w3.org/2000/svg">
<path d="M10.6782 11.0946C11.0718 10.7011 11.128 10.1389 10.7907 9.57666C10.5096 9.1269 10.0036 8.90201 9.44138 9.01446C9.2165 9.07068 8.99161 9.18312 8.76672 9.35178C7.02388 10.5324 4.66261 10.4762 2.91977 9.29556C2.80733 9.23934 2.69488 9.18312 2.58244 9.1269C1.96401 8.84579 1.34559 8.95824 1.00827 9.52045C0.614722 10.0827 0.670935 10.7011 1.17692 11.2071C1.28936 11.3195 1.40181 11.3757 1.45803 11.4882L1.51425 11.5444C2.30134 12.1628 3.2571 12.5564 4.49395 12.725L3.76308 13.4559C3.14465 14.0743 2.47001 14.749 1.85158 15.3674C1.68292 15.5361 1.45803 15.8172 1.45803 16.2107C1.45803 16.7167 1.73913 17.2227 2.24512 17.4476C2.41378 17.56 2.58244 17.56 2.75111 17.56C3.03221 17.56 3.36953 17.4476 3.59442 17.1665C4.43773 16.3232 5.11238 15.6485 5.78703 14.9739C5.84325 14.9176 5.84325 14.9176 5.84325 14.9176C5.84325 14.9176 5.89947 14.9176 5.89947 14.9739C6.34924 15.4798 6.85522 15.9296 7.30499 16.4356C7.52987 16.6605 7.75475 16.8854 7.97964 17.1102C8.26074 17.3914 8.48562 17.5038 8.82295 17.5038C9.32894 17.56 9.89114 17.2227 10.116 16.7167C10.3409 16.2669 10.2285 15.7047 9.83492 15.3674C9.27272 14.8052 8.71051 14.1868 8.09208 13.6246L7.13633 12.6688C7.64231 12.6126 8.20452 12.5001 8.71051 12.2753C9.55382 11.9942 10.1722 11.6006 10.6782 11.0946Z" fill="#9A711A"/>
<path d="M5.84325 9.52044C8.26074 9.52044 10.2285 7.60893 10.2285 5.19144C10.2285 4.0108 9.7787 2.88639 8.93539 2.04308C8.09208 1.19977 7.02389 0.75 5.89947 0.75C3.48198 0.75 1.57047 2.71772 1.51425 5.079C1.51425 6.25963 1.96402 7.32783 2.80733 8.17114C3.59442 9.07067 4.66261 9.52044 5.84325 9.52044ZM4.60639 3.89837C4.94372 3.56104 5.39348 3.39237 5.84325 3.39237C6.85522 3.39237 7.58609 4.17947 7.58609 5.13522C7.58609 6.14719 6.799 6.87806 5.84325 6.87806C4.83127 6.87806 4.10041 6.09097 4.10041 5.13522C4.10041 4.68545 4.26907 4.23569 4.60639 3.89837Z" fill="#9A711A"/>
<path d="M10.6782 11.0946C11.0718 10.7011 11.128 10.1389 10.7907 9.57666C10.5096 9.1269 10.0036 8.90201 9.44138 9.01446C9.2165 9.07068 8.99161 9.18312 8.76672 9.35178C7.02388 10.5324 4.66261 10.4762 2.91977 9.29556C2.80733 9.23934 2.69488 9.18312 2.58244 9.1269C1.96401 8.84579 1.34559 8.95824 1.00827 9.52045C0.614722 10.0827 0.670935 10.7011 1.17692 11.2071C1.28936 11.3195 1.40181 11.3757 1.45803 11.4882L1.51425 11.5444C2.30134 12.1628 3.2571 12.5564 4.49395 12.725L3.76308 13.4559C3.14465 14.0743 2.47001 14.749 1.85158 15.3674C1.68292 15.5361 1.45803 15.8172 1.45803 16.2107C1.45803 16.7167 1.73913 17.2227 2.24512 17.4476C2.41378 17.56 2.58244 17.56 2.75111 17.56C3.03221 17.56 3.36953 17.4476 3.59442 17.1665C4.43773 16.3232 5.11238 15.6485 5.78703 14.9739C5.84325 14.9176 5.84325 14.9176 5.84325 14.9176C5.84325 14.9176 5.89947 14.9176 5.89947 14.9739C6.34924 15.4798 6.85522 15.9296 7.30499 16.4356C7.52987 16.6605 7.75475 16.8854 7.97964 17.1102C8.26074 17.3914 8.48562 17.5038 8.82295 17.5038C9.32894 17.56 9.89114 17.2227 10.116 16.7167C10.3409 16.2669 10.2285 15.7047 9.83492 15.3674C9.27272 14.8052 8.71051 14.1868 8.09208 13.6246L7.13633 12.6688C7.64231 12.6126 8.20452 12.5001 8.71051 12.2753C9.55382 11.9942 10.1722 11.6006 10.6782 11.0946Z" fill="#9A711A"/>
</svg>
