<svg width="70" height="70" viewBox="0 0 70 70" fill="none" xmlns="http://www.w3.org/2000/svg">
<g clip-path="url(#clip0)">
<path d="M6.62273 35.8871C7.18296 35.8048 7.57068 35.2836 7.4879 34.7234L6.63501 28.9256C7.38483 28.8546 8.12183 28.6442 8.81343 28.2922C9.5045 27.9403 10.1096 27.4687 10.6079 26.9042L23.6234 39.6559C23.9481 39.9737 24.3748 40.1451 24.8159 40.1451C24.95 40.1451 25.0851 40.1291 25.2192 40.097C25.7954 39.9587 26.252 39.5411 26.4411 38.9793L32.7718 20.1724C33.4618 20.4464 34.2132 20.5986 34.9999 20.5986C35.7865 20.5986 36.538 20.4459 37.2285 20.1719L38.0269 22.5452C38.1711 22.9736 38.5706 23.2438 38.9989 23.2438C39.1073 23.2438 39.2179 23.2267 39.3263 23.1898C39.8625 23.0093 40.1514 22.4277 39.9709 21.891L39.0203 19.068C40.2705 17.9566 41.0609 16.3379 41.0609 14.5376C41.0609 11.1954 38.342 8.47656 34.9999 8.47656C31.6577 8.47656 28.9389 11.1954 28.9389 14.5376C28.9389 16.3379 29.7293 17.9566 30.98 19.068L27.7356 28.7067L24.7412 24.1917C25.4237 23.0825 25.6694 21.7073 25.3078 20.3524C24.6093 17.7371 21.9133 16.1777 19.2981 16.8757C16.6828 17.5737 15.1228 20.2696 15.8208 22.8849C16.1594 24.1522 16.9706 25.2118 18.1055 25.8681C18.145 25.8911 18.1856 25.9109 18.2257 25.9328L17.8908 31.1687L11.7038 25.1071C11.7481 24.995 11.7897 24.8817 11.8271 24.7664C12.3281 23.2267 12.1994 21.5839 11.465 20.1414C10.7307 18.699 9.47834 17.6282 7.93865 17.1278C6.39896 16.6263 4.75673 16.7555 3.31424 17.4899C1.87122 18.2242 0.800968 19.4765 0.300022 21.0162C-0.20039 22.5559 -0.0716825 24.1982 0.662647 25.6406C1.39698 27.0837 2.64934 28.1539 4.1885 28.6549C4.30439 28.6922 4.42081 28.7254 4.53724 28.7558L5.45955 35.0224C5.53432 35.5319 5.97225 35.8983 6.47266 35.8983C6.52233 35.8983 6.57253 35.8945 6.62273 35.8871ZM34.9999 10.5273C37.2109 10.5273 39.0101 12.3266 39.0101 14.5376C39.0101 16.7491 37.2109 18.5478 34.9999 18.5478C32.7889 18.5478 30.9896 16.7491 30.9896 14.5376C30.9896 12.3266 32.7889 10.5273 34.9999 10.5273ZM17.8022 22.3562C17.3957 20.8331 18.3036 19.2635 19.8268 18.857C20.073 18.7914 20.3202 18.7598 20.5638 18.7598C21.8268 18.7598 22.9852 19.6047 23.3265 20.8817C23.7329 22.4043 22.8244 23.9744 21.3013 24.3808C20.5638 24.5779 19.7937 24.4759 19.1325 24.0935C18.4713 23.7111 17.9992 23.0937 17.8022 22.3562ZM20.2428 26.5202C20.3469 26.5266 20.4516 26.5304 20.5563 26.5304C20.9809 26.5304 21.4092 26.4748 21.8306 26.3622C22.3619 26.2201 22.849 25.9947 23.2837 25.7047L26.9068 31.1681L24.6707 37.8113L19.8246 33.0635L20.2428 26.5202ZM2.48966 24.7103C2.00367 23.756 1.91875 22.6691 2.2504 21.6507C2.58152 20.6317 3.28968 19.8034 4.24457 19.3174C4.81655 19.0263 5.43552 18.8789 6.05983 18.8789C6.47693 18.8789 6.89617 18.9446 7.30472 19.0776C8.32317 19.4093 9.15149 20.1174 9.63748 21.0718C10.1235 22.0267 10.2084 23.1129 9.87728 24.1319C9.54563 25.1504 8.83747 25.9792 7.88311 26.4652C6.92875 26.9507 5.84194 27.0361 4.82296 26.7045C3.80451 26.3734 2.97565 25.6652 2.48966 24.7103Z" fill="#CEAD66"/>
<path d="M69.6996 21.0163C69.1987 19.4766 68.1284 18.2243 66.6854 17.4899C65.2429 16.7556 63.6007 16.6269 62.061 17.1279C60.5213 17.6288 59.2689 18.699 58.5346 20.1415C57.8003 21.5846 57.6716 23.2268 58.1725 24.7665C58.2099 24.8818 58.2516 24.9951 58.2954 25.1067L52.1088 31.1688L51.774 25.9329C51.814 25.911 51.8546 25.8912 51.8941 25.8682C53.0296 25.2119 53.8408 24.1523 54.1788 22.885C54.8774 20.2697 53.3174 17.5738 50.7016 16.8758C48.0868 16.1772 45.3904 17.7372 44.6924 20.3525C44.3308 21.7074 44.576 23.0831 45.259 24.1918L42.2651 28.7062L41.4747 26.3596C41.2942 25.8228 40.7126 25.5339 40.1759 25.715C39.6391 25.8955 39.3507 26.4771 39.5312 27.0138L43.5596 38.9794C43.7487 39.5412 44.2053 39.9588 44.7816 40.0971C44.9156 40.1292 45.0507 40.1452 45.1848 40.1452C45.6259 40.1452 46.0532 39.9738 46.3779 39.6555L59.3912 26.9038C59.8901 27.4683 60.4951 27.9404 61.1862 28.2923C61.8778 28.6448 62.6153 28.8552 63.3652 28.9263L60.1186 50.9807H9.88037L8.18367 39.4509L6.15479 39.7495L7.96951 52.0814V59.8023C7.96951 60.7454 8.73695 61.5128 9.6801 61.5128H45.8096C46.3763 61.5128 46.835 61.0536 46.835 60.4875C46.835 59.9214 46.3763 59.4621 45.8096 59.4621H10.0203V53.0315H59.9792V59.4621H50.5296C49.963 59.4621 49.5042 59.9214 49.5042 60.4875C49.5042 61.0536 49.963 61.5128 50.5296 61.5128H60.3194C61.2626 61.5128 62.0295 60.7454 62.0295 59.8023V52.0771L65.4629 28.7559C65.5794 28.7254 65.6953 28.6923 65.8111 28.655C67.3503 28.154 68.6027 27.0838 69.337 25.6407C70.0719 24.1982 70.2 22.5555 69.6996 21.0163ZM46.6732 20.8817C47.0802 19.3586 48.6497 18.4507 50.1729 18.8571C51.6955 19.2635 52.6039 20.8331 52.1975 22.3563C52.0004 23.0938 51.5283 23.7112 50.8672 24.0936C50.2065 24.476 49.4359 24.578 48.6983 24.3809C47.1752 23.9745 46.2668 22.4043 46.6732 20.8817ZM45.33 37.8114L43.0934 31.1677L46.7159 25.7048C47.1506 25.9948 47.6377 26.2202 48.1691 26.3622C48.591 26.4749 49.0188 26.5305 49.4434 26.5305C49.548 26.5305 49.6527 26.5267 49.7568 26.5203L50.175 33.0636L45.33 37.8114ZM67.5095 24.7104C67.024 25.6653 66.1951 26.3735 65.1767 26.7046C64.1577 27.0362 63.0714 26.9508 62.1165 26.4653C61.1622 25.9793 60.454 25.1505 60.1224 24.132C59.7913 23.113 59.8762 22.0268 60.3622 21.0719C60.8482 20.1175 61.677 19.4093 62.6955 19.0777C63.1035 18.9447 63.5227 18.879 63.9403 18.879C64.5636 18.879 65.1831 19.0264 65.7551 19.3175C66.71 19.8035 67.4181 20.6323 67.7492 21.6508C68.0809 22.6692 67.9954 23.756 67.5095 24.7104Z" fill="#CEAD66"/>
<path d="M35.0001 32.0586C32.1503 32.0586 29.918 35.773 29.918 40.5154C29.918 45.2578 32.1503 48.9722 35.0001 48.9722C37.8498 48.9722 40.0821 45.2578 40.0821 40.5154C40.0821 35.773 37.8498 32.0586 35.0001 32.0586ZM35.0001 46.9214C33.5661 46.9214 31.9687 44.2906 31.9687 40.5154C31.9687 36.7401 33.5661 34.1088 35.0001 34.1088C36.4335 34.1088 38.0314 36.7401 38.0314 40.5154C38.0314 44.2906 36.4335 46.9214 35.0001 46.9214Z" fill="#CEAD66"/>
<path d="M53.5728 48.4236C54.1865 48.4236 54.8001 48.1897 55.2668 47.7229L58.3489 44.6409C59.283 43.7068 59.283 42.1869 58.3489 41.2528L55.2668 38.1708C54.3328 37.2367 52.8129 37.2367 51.8793 38.1708L48.7967 41.2528C47.8627 42.1869 47.8627 43.7063 48.7967 44.6403L51.8793 47.7229C52.3461 48.1902 52.9597 48.4236 53.5728 48.4236ZM50.2467 42.7028L53.3293 39.6207C53.3966 39.5534 53.4847 39.5198 53.5728 39.5198C53.6615 39.5198 53.7496 39.5534 53.8169 39.6207L56.8989 42.7028C57.0335 42.8374 57.0335 43.0563 56.8989 43.1909L53.8169 46.273C53.6823 46.4075 53.4639 46.407 53.3293 46.273L50.2467 43.1904C50.1127 43.0563 50.1127 42.8374 50.2467 42.7028Z" fill="#CEAD66"/>
<path d="M14.7328 38.1708L11.6507 41.2528C10.7167 42.1869 10.7167 43.7068 11.6507 44.6409L14.7328 47.7229C15.2001 48.1902 15.8132 48.4236 16.4268 48.4236C17.0399 48.4236 17.6536 48.1897 18.1203 47.7229L21.2029 44.6409C22.1364 43.7068 22.1364 42.1869 21.2029 41.2528L18.1203 38.1708C17.1863 37.2367 15.6669 37.2367 14.7328 38.1708ZM19.7529 43.1909L16.6704 46.273C16.5358 46.407 16.3173 46.407 16.1828 46.273L13.1007 43.1909C12.9661 43.0563 12.9661 42.8374 13.1007 42.7028L16.1828 39.6207C16.2501 39.5534 16.3387 39.5198 16.4268 39.5198C16.5149 39.5198 16.6036 39.5534 16.6704 39.6207L19.7529 42.7028C19.887 42.8374 19.887 43.0563 19.7529 43.1909Z" fill="#CEAD66"/>
</g>
<defs>
<clipPath id="clip0">
<rect width="70" height="70" fill="white"/>
</clipPath>
</defs>
</svg>
