<svg width="70" height="70" viewBox="0 0 70 70" fill="none" xmlns="http://www.w3.org/2000/svg">
<g clip-path="url(#clip0)">
<path d="M63.284 0.0428962C62.7409 -0.118842 62.1703 0.190963 62.009 0.733736L59.6604 8.63581C59.4991 9.17872 59.8085 9.74952 60.3513 9.91084C60.4487 9.93969 60.5471 9.95364 60.6438 9.95364C61.0859 9.95364 61.494 9.66544 61.6263 9.22014L63.9749 1.31794C64.1362 0.775025 63.8268 0.204224 63.284 0.0428962Z" fill="#CEAD66"/>
<path d="M40.9432 29.1123C40.6853 29.3658 40.2634 29.3649 40.0025 29.1102C39.5974 28.7145 38.9482 28.7221 38.5525 29.1274C38.1568 29.5325 38.1646 30.1818 38.5697 30.5774C39.0958 31.0912 39.7858 31.348 40.4753 31.348C41.1659 31.348 41.8559 31.0904 42.3803 30.5752C42.7843 30.1783 42.7901 29.5292 42.3933 29.1252C41.9964 28.7215 41.3474 28.7154 40.9432 29.1123Z" fill="#CEAD66"/>
<path d="M29.9915 29.1123C29.7336 29.3658 29.3117 29.3649 29.0509 29.1102C28.6458 28.7145 27.9965 28.7221 27.6008 29.1274C27.2052 29.5325 27.213 30.1818 27.6181 30.5774C28.1441 31.0912 28.8342 31.348 29.5236 31.348C30.2142 31.348 30.9042 31.0904 31.4287 30.5752C31.8327 30.1783 31.8384 29.5292 31.4417 29.1252C31.0448 28.7215 30.3956 28.7154 29.9915 29.1123Z" fill="#CEAD66"/>
<path d="M59.5407 12.6384C58.998 12.4768 58.4271 12.786 58.2654 13.3287L56.9206 17.8476C56.6589 18.7273 56.4272 19.442 56.2226 20.0727C55.6106 21.9593 55.2405 23.1004 55.1438 25.3393C55.0975 25.9154 55.0798 26.4776 55.0629 27.0215C54.9892 29.3758 54.9312 31.2354 52.753 32.9909C52.7337 33.0065 52.715 33.0226 52.6968 33.0396L46.2511 39.0553C46.0359 39.2568 45.787 39.284 45.6161 39.2715C45.3204 39.2496 45.0404 39.0982 44.8478 38.8558C44.3802 38.2677 44.9014 37.4452 45.1457 37.1209L48.7381 32.3739C49.3752 32.2958 49.9751 32.03 50.4683 31.5944C51.1124 31.0254 51.4959 30.2417 51.548 29.3905L51.8502 24.6974C51.8866 24.1323 51.458 23.6446 50.8929 23.6083C50.3288 23.5718 49.8402 24.0005 49.8038 24.5656L49.5014 29.2619C49.4825 29.5689 49.3438 29.8514 49.1107 30.0574C48.8776 30.2632 48.5805 30.3657 48.2742 30.3474C47.6405 30.3085 47.1553 29.7564 47.1925 29.1163L47.3825 25.8259C47.5569 22.8008 48.3397 20.9127 50.0009 19.5122C50.1318 19.4014 50.2595 19.3037 50.3945 19.2002C51.034 18.7102 51.6953 18.2034 52.225 16.7342L52.4303 16.1683C52.4373 16.1492 52.4436 16.1299 52.4495 16.1105L56.844 1.31779C57.0054 0.774876 56.696 0.204212 56.1531 0.0428834C55.6099 -0.118445 55.0395 0.191087 54.8782 0.73386L50.4922 15.4973L50.2964 16.0367C50.2043 16.2923 50.1147 16.4923 50.0219 16.6587C49.1673 15.0773 47.9122 13.6884 46.3202 12.5755C46.1928 10.7742 45.5054 9.09162 44.355 7.78869C43.9952 7.38126 43.5948 7.02101 43.1618 6.70861C42.8175 4.2396 41.3047 2.27331 38.8577 1.13677C35.0594 -0.627312 29.8045 0.0297583 26.0789 2.73447C22.1501 5.58683 20.3234 10.212 20.9137 15.7802C20.7099 16.2346 20.5274 16.6982 20.3657 17.1694C20.1104 16.9204 19.9136 16.6198 19.7026 16.0347L19.5076 15.4976L15.1217 0.733724C14.9604 0.190813 14.3897 -0.118581 13.8468 0.0427467C13.3039 0.204075 12.9946 0.774739 13.1558 1.31765L17.5505 16.1103C17.5563 16.1299 17.5627 16.1492 17.5697 16.1682L17.7743 16.7319C18.3048 18.2032 18.9661 18.7099 19.6057 19.2001C19.7407 19.3036 19.8683 19.4013 19.9994 19.5122C21.6603 20.9151 22.4433 22.8033 22.6176 25.8259L22.8075 29.1167C22.8447 29.7563 22.3596 30.3083 21.7258 30.3473C21.0885 30.3869 20.5358 29.8979 20.4946 29.2594L20.1962 24.5663C20.1602 24.0012 19.674 23.5722 19.1077 23.608C18.5425 23.644 18.1137 24.1312 18.1495 24.6964L18.4479 29.3905C18.5488 30.954 19.76 32.1874 21.2612 32.3733L24.8505 37.121C25.097 37.4465 25.6198 38.2671 25.1537 38.8537C24.959 39.0974 24.6775 39.2496 24.3815 39.2713C24.2108 39.2839 23.961 39.2563 23.7441 39.0545L17.3032 33.0397C17.2849 33.0226 17.266 33.0061 17.2463 32.9903C15.0669 31.236 15.0095 29.3777 14.9367 27.0252C14.9199 26.4802 14.9025 25.9169 14.8561 25.3393C14.7595 23.1053 14.3898 21.9675 13.7783 20.0861C13.5723 19.4522 13.3388 18.7336 13.0753 17.8479L7.991 0.733724C7.82967 0.190813 7.25914 -0.118171 6.7161 0.0427467C6.17319 0.204075 5.86393 0.774876 6.02512 1.31765L11.1097 18.4321C11.3805 19.3429 11.6184 20.0745 11.8281 20.72C12.4063 22.4991 12.7249 23.4791 12.8081 25.4459C12.8087 25.4592 12.8095 25.4726 12.8106 25.4858C12.8541 26.0188 12.8708 26.5625 12.8872 27.0885C12.9652 29.6135 13.0458 32.2239 15.9305 34.5636L22.3455 40.5542C22.8836 41.0555 23.5738 41.3248 24.3088 41.3248C24.3828 41.3248 24.4571 41.3221 24.5319 41.3166C24.5636 41.3143 24.5952 41.3105 24.6268 41.3071C25.7074 42.6171 27.0809 43.8999 28.553 44.9519V47.3989L28.3188 47.4587C23.021 48.8125 13.1601 51.3324 12.7118 58.8035L12.2548 67.752C12.2241 68.2768 12.2486 68.9425 12.7144 69.4363C13.1829 69.933 13.8404 70 14.4217 70H55.5782C56.1595 70 56.817 69.933 57.2855 69.4363C57.7513 68.9425 57.7756 68.2768 57.7454 67.7597L57.2875 58.7937C56.8353 51.3295 46.9708 48.8105 41.6711 47.4571L41.4469 47.3998V44.9494C42.9181 43.8979 44.2912 42.6163 45.3724 41.3072C45.4034 41.3105 45.4343 41.3143 45.4655 41.3165C45.5405 41.322 45.6152 41.3248 45.6894 41.3248C46.4254 41.3248 47.1153 41.055 47.6512 40.5535L54.0695 34.5634C56.9518 32.2229 57.0335 29.6113 57.1124 27.0855C57.1288 26.5606 57.1458 26.0178 57.1891 25.486C57.1902 25.4727 57.191 25.4595 57.1916 25.4461C57.2751 23.4736 57.5752 22.5484 58.1731 20.7055C58.3813 20.0637 58.6173 19.3361 58.8861 18.4325L60.2308 13.9137C60.3924 13.3708 60.0834 12.7998 59.5407 12.6384ZM46.1552 15.049C47.1637 15.9404 47.9372 16.9707 48.4677 18.1289C46.7233 19.6935 45.9571 21.6029 45.6059 23.4124C44.5527 22.3544 43.3459 21.467 42.0312 20.7742C42.5207 20.5365 42.985 20.2404 43.4155 19.8845C44.8226 18.7213 45.775 17.0158 46.1552 15.049ZM27.2837 4.39369C30.4349 2.10583 34.8391 1.5312 37.9938 2.99642C38.9655 3.44773 40.0911 4.23113 40.7126 5.5588C40.1202 5.40308 39.5003 5.31367 38.8606 5.29835C34.1389 5.18857 29.8117 6.48548 26.3522 9.05074C25.0413 10.0228 23.888 11.1607 22.9192 12.4229C23.233 9.03502 24.728 6.24923 27.2837 4.39369ZM22.0566 18.6403C22.1525 18.295 22.2591 17.9552 22.377 17.6216C22.4464 17.5909 22.5144 17.5549 22.5778 17.5075C26.0738 14.89 32.8875 13.8341 37.7667 15.1535C38.3136 15.3014 38.8764 14.9779 39.0242 14.4313C39.1722 13.8846 38.8488 13.3216 38.3021 13.1738C33.8678 11.9743 28.1722 12.5104 24.0321 14.332C27.0425 9.87748 32.4668 7.19806 38.8121 7.34859C39.9156 7.37498 40.8579 7.67015 41.6346 8.14757C41.6527 8.15933 41.6706 8.17109 41.6893 8.18175C43.389 9.25636 44.276 11.2147 44.2908 13.1375C44.2786 15.2847 43.4837 17.1673 42.109 18.3036C40.9487 19.2628 39.4976 19.6135 37.9124 19.3176C37.8844 19.3124 37.8567 19.3093 37.8288 19.3064C36.9057 19.1312 35.9593 19.0393 35.0001 19.0391C34.9992 19.0391 34.9991 19.0391 34.9983 19.0391C30.9651 19.0391 27.1512 20.6404 24.3934 23.41C24.0795 21.795 23.4341 20.0999 22.0566 18.6403ZM55.24 58.908L55.6978 67.8719C55.6994 67.8992 55.7007 67.9243 55.7015 67.9474C55.6654 67.9485 55.6245 67.9492 55.5783 67.9492H50.6937V62.0297C50.6937 61.0497 49.8964 60.2525 48.9165 60.2525H37.2633C36.697 60.2525 36.2379 60.7116 36.2379 61.2779C36.2379 61.8442 36.697 62.3033 37.2633 62.3033H48.643V67.9492H21.357V62.3033H32.5313C33.0976 62.3033 33.5567 61.8442 33.5567 61.2779C33.5567 60.7116 33.0976 60.2525 32.5313 60.2525H21.0796C20.1018 60.2525 19.3063 61.0498 19.3063 62.0297V67.9492H14.4217C14.3755 67.9492 14.3346 67.9485 14.2985 67.9474C14.2995 67.9221 14.3008 67.8945 14.3025 67.8643L14.7593 58.9173C15.1175 52.949 23.699 50.7561 28.8264 49.4458L29.1197 49.3709C30.4108 49.0454 30.6036 48.1056 30.6036 47.5744V46.2253C32.043 46.9815 33.49 47.4468 34.7784 47.4468C34.8528 47.4468 34.9265 47.4453 34.9998 47.4422C35.0731 47.4452 35.1465 47.4468 35.2209 47.4468C36.5086 47.4467 37.9561 46.9806 39.3961 46.2233V47.5744C39.3961 48.1047 39.5881 49.0433 40.8727 49.3701L41.1638 49.4444C46.2934 50.7541 54.8788 52.9465 55.24 58.908ZM43.509 35.8851C42.416 37.3364 42.3138 38.9636 43.2424 40.1318C43.3131 40.2207 43.3882 40.3051 43.4672 40.3852C40.9319 43.2866 37.2647 45.5109 35.0552 45.3915C35.0185 45.3895 34.9817 45.3895 34.945 45.3915C32.7326 45.5094 29.0644 43.2864 26.532 40.3852C26.6111 40.3052 26.6866 40.2207 26.7576 40.1318C27.6881 38.9613 27.5838 37.3331 26.486 35.8836L23.4399 31.8543C24.3498 31.2395 24.9233 30.172 24.855 28.998L24.693 26.1906C27.1102 22.9444 30.8456 21.0899 34.9984 21.0899H35.0001C35.8361 21.0901 36.6548 21.1663 37.4497 21.3129C37.4781 21.3208 37.5069 21.3282 37.5366 21.3337C37.5851 21.3427 37.6335 21.3493 37.6821 21.3575C40.7402 21.9789 43.4241 23.6638 45.3073 26.1942L45.1454 28.9976C45.0771 30.1717 45.6505 31.2391 46.5599 31.8541L43.509 35.8851Z" fill="#CEAD66"/>
<path d="M36.3722 37.5722C35.6525 38.0114 34.3448 38.0118 33.6285 37.5731C33.1456 37.2771 32.5144 37.4291 32.2185 37.9119C31.9227 38.3947 32.0744 39.026 32.5573 39.3218C33.2411 39.7407 34.1194 39.9501 34.9983 39.9501C35.8765 39.9501 36.7553 39.7409 37.4405 39.3227C37.924 39.0276 38.0765 38.3967 37.7816 37.9132C37.4867 37.4299 36.8555 37.2771 36.3722 37.5722Z" fill="#CEAD66"/>
</g>
<defs>
<clipPath id="clip0">
<rect width="70" height="70" fill="white"/>
</clipPath>
</defs>
</svg>
