<svg width="70" height="70" viewBox="0 0 70 70" fill="none" xmlns="http://www.w3.org/2000/svg">
<path d="M33.2667 1.20422C33.1684 1.155 30.8057 0 26.2323 0C23.0357 0 16.8927 0.605254 11.6648 4.65883C6.53308 8.63789 3.73335 14.7658 3.33044 22.8814C2.15001 25.967 1.42185 29.2228 1.18382 32.5397C1.14335 33.1045 1.56841 33.5954 2.13319 33.636C2.15821 33.6377 2.18296 33.6387 2.20757 33.6387C2.74036 33.6387 3.19044 33.2265 3.22927 32.6866C3.41698 30.0703 3.92954 27.4947 4.74548 25.0201C6.42028 24.7745 13.6702 23.225 19.8146 14.3497C26.7828 4.28449 32.8577 3.15328 32.9652 3.13482C33.4047 3.0666 33.7506 2.72262 33.8206 2.28279C33.891 1.84078 33.6668 1.40424 33.2667 1.20422ZM11.439 7.55945V10.6281C9.75308 12.2578 8.23017 14.0596 6.90837 16.0113C6.66706 16.3674 6.43382 16.7285 6.20686 17.093C7.26165 12.8239 9.1753 9.75926 11.439 7.55945ZM5.59354 22.7451C6.37079 20.8797 7.32687 19.0868 8.45151 17.3942H14.5838C12.4404 19.4778 10.3799 20.7613 8.80124 21.5343C7.51144 22.1659 6.39882 22.5334 5.59354 22.7451ZM18.1286 13.1821C17.5871 13.9645 17.0364 14.6824 16.4836 15.3433H9.9371C12.8272 11.6651 16.5038 8.64418 20.6821 6.53803C21.1878 6.28318 21.3911 5.66645 21.1361 5.16086C20.8812 4.655 20.2646 4.4517 19.759 4.70682C17.5213 5.83475 15.4188 7.20945 13.4899 8.79498V5.85156C18.2188 2.4891 23.7207 2.05078 26.2323 2.05078C27.5189 2.05078 28.605 2.15031 29.4886 2.28635C26.7733 3.68895 22.605 6.71617 18.1286 13.1821Z" fill="#CEAD66"/>
<path d="M37.3134 3.22939C39.9296 3.4171 42.5054 3.92966 44.98 4.7456C45.2189 6.3705 46.6871 13.2458 54.8856 19.2692C55.3418 19.6046 55.9838 19.5064 56.3189 19.0499C56.6543 18.5936 56.5561 17.9518 56.0996 17.6166C55.5898 17.242 55.1113 16.8634 54.6564 16.4832V9.93708C58.3346 12.8272 61.3555 16.5038 63.4617 20.6821C63.642 21.0397 64.0032 21.246 64.3781 21.246C64.5333 21.246 64.6908 21.2108 64.8388 21.1361C65.3446 20.8813 65.5479 20.2645 65.2929 19.759C64.1649 17.5213 62.7902 15.4188 61.2047 13.4899H64.1485C67.5109 18.2188 67.9491 23.7207 67.9491 26.2323C67.9491 27.5201 67.8494 28.6071 67.7132 29.491C66.5656 27.2661 64.3333 24.0719 60.0318 20.5735C59.5924 20.2163 58.9465 20.2826 58.5893 20.722C58.2319 21.1613 58.2985 21.8073 58.7378 22.1645C65.9755 28.0514 66.8578 32.9209 66.8647 32.9624C66.932 33.404 67.2776 33.7514 67.719 33.8209C67.7725 33.8294 67.8259 33.8335 67.8789 33.8335C68.2625 33.8335 68.6201 33.6177 68.7956 33.2666C68.8448 33.1683 69.9998 30.8057 69.9998 26.2323C69.9998 23.0357 69.3946 16.8927 65.341 11.6648C61.3619 6.53306 55.2341 3.73347 47.1186 3.33042C44.033 2.14999 40.7772 1.42183 37.4602 1.1838C36.8975 1.14347 36.4046 1.56826 36.364 2.13318C36.3234 2.6981 36.7486 3.18892 37.3134 3.22939ZM47.2606 5.59599C49.124 6.37283 50.9149 7.32808 52.6058 8.4515V14.5835C49.0998 10.9705 47.7577 7.45714 47.2606 5.59599ZM62.4411 11.4389H59.3719C57.7422 9.75306 55.9404 8.23015 53.9887 6.90835C53.6323 6.66704 53.2711 6.43353 52.9064 6.20644C57.176 7.26122 60.241 9.17501 62.4411 11.4389Z" fill="#CEAD66"/>
<path d="M67.8664 36.3643C67.3037 36.3256 66.8108 36.7487 66.7702 37.3136C66.5825 39.9299 66.0699 42.5055 65.254 44.9802C63.5792 45.2257 56.3293 46.7753 50.1849 55.6505C43.2167 65.7157 37.1418 66.847 37.0343 66.8654C36.5947 66.9336 36.2488 67.2776 36.1788 67.7174C36.1084 68.1592 36.3327 68.5957 36.733 68.7957C36.8313 68.845 39.1939 70 43.7673 70C46.9639 70 53.1069 69.3947 58.3348 65.3411C63.4665 61.3621 66.2661 55.2342 66.6692 47.1187C67.8496 44.0331 68.5778 40.7773 68.8158 37.4603C68.8564 36.8956 68.4313 36.4047 67.8664 36.3643ZM64.4062 47.255C63.629 49.1204 62.6729 50.9133 61.5482 52.6059H55.416C57.5593 50.5223 59.6198 49.2388 61.1985 48.4658C62.4883 47.8342 63.6009 47.4667 64.4062 47.255ZM40.5112 67.7138C43.2264 66.3112 47.3947 63.2839 51.8712 56.8178C52.4127 56.0355 52.9634 55.3176 53.5161 54.6567H60.0627C57.1726 58.3348 53.4959 61.3558 49.3177 63.4619C48.8119 63.7168 48.6086 64.3335 48.8636 64.8391C49.0439 65.1968 49.4052 65.4031 49.78 65.4031C49.9352 65.4031 50.0927 65.3678 50.2408 65.2931C52.4785 64.1652 54.5809 62.7905 56.5099 61.205V64.1485C51.7809 67.511 46.2791 67.9493 43.7674 67.9493C42.4809 67.9493 41.3948 67.8498 40.5112 67.7138ZM58.5608 62.4408V59.3721C60.2467 57.7424 61.7696 55.9406 63.0914 53.989C63.3327 53.6328 63.5659 53.2717 63.7929 52.9072C62.7381 57.1762 60.8244 60.2408 58.5608 62.4408Z" fill="#CEAD66"/>
<path d="M32.6864 66.7707C27.2289 66.3791 21.948 64.5742 17.394 61.5486V55.4047C19.059 57.111 20.4049 58.9662 21.4132 60.9561C21.6691 61.4612 22.2862 61.6632 22.7913 61.4072C23.2965 61.1513 23.4984 60.5343 23.2425 60.0291C21.3328 56.2606 18.3407 52.9486 14.3495 50.1853C4.24484 43.1899 3.14426 37.0945 3.13551 37.0409C3.06961 36.5984 2.72439 36.2497 2.28252 36.1793C1.84051 36.1089 1.40424 36.3331 1.20422 36.7335C1.155 36.8318 0 39.1944 0 43.7678C0 46.8941 0.581602 52.913 4.47727 58.0974C8.44375 63.3761 14.6363 66.2591 22.883 66.6703C25.9681 67.8504 29.2235 68.5784 32.5397 68.8164C32.5648 68.8182 32.5895 68.8192 32.6141 68.8192C33.1469 68.8192 33.597 68.407 33.6358 67.8671C33.6764 67.302 33.2512 66.8112 32.6864 66.7707ZM2.05078 43.7678C2.05078 42.4812 2.15031 41.3949 2.28621 40.5115C3.68895 43.2268 6.71604 47.3951 13.1821 51.8716C13.943 52.3984 14.6621 52.9469 15.3433 53.5142V60.0631C11.6651 57.173 8.64418 53.4964 6.53803 49.3181C6.28305 48.8123 5.66645 48.609 5.16086 48.8641C4.65514 49.1189 4.45184 49.7357 4.70682 50.2413C5.83475 52.4789 7.20945 54.5814 8.79498 56.5104H5.85635C2.48418 51.7706 2.05078 46.2571 2.05078 43.7678ZM7.56492 58.5611H10.628C12.2577 60.247 14.0595 61.7699 16.0111 63.0917C16.3637 63.3306 16.7211 63.5616 17.0819 63.7865C12.8237 62.7305 9.76172 60.821 7.56492 58.5611Z" fill="#CEAD66"/>
<path d="M33.4473 42.812V26.5815C33.4473 26.0153 32.9882 25.5562 32.4219 25.5562C31.8556 25.5562 31.3965 26.0153 31.3965 26.5815V42.812C31.3965 43.3783 31.8556 43.8374 32.4219 43.8374C32.9882 43.8374 33.4473 43.3783 33.4473 42.812Z" fill="#CEAD66"/>
<path d="M22.59 25.5562H17.8755C17.3092 25.5562 16.8501 26.0153 16.8501 26.5815V42.812C16.8501 43.0847 16.9588 43.3463 17.152 43.5386C17.3442 43.73 17.6044 43.8374 17.8755 43.8374H17.88C17.9233 43.8372 22.2327 43.8181 23.4134 43.8181C26.3877 43.8181 28.8075 41.3983 28.8075 38.424C28.8075 36.3713 27.6547 34.583 25.9627 33.6718C26.8196 32.8106 27.3501 31.6243 27.3501 30.3163C27.3501 27.6914 25.2147 25.5562 22.59 25.5562ZM22.59 27.6069C24.0839 27.6069 25.2992 28.8224 25.2992 30.3162C25.2992 31.8099 24.0838 33.0254 22.59 33.0254C22.245 33.0254 18.9009 33.0297 18.9009 33.0297V27.6068H22.59V27.6069ZM23.4134 41.7673C22.5913 41.7673 20.2642 41.7765 18.9009 41.7822V35.0883C19.4714 35.086 23.4134 35.0807 23.4134 35.0807C25.2569 35.0807 26.7567 36.5805 26.7567 38.424C26.7567 40.2675 25.2569 41.7673 23.4134 41.7673Z" fill="#CEAD66"/>
<path d="M45.3071 43.8374C50.3472 43.8374 54.4477 39.7369 54.4477 34.6968C54.4477 29.6566 50.3472 25.5562 45.3071 25.5562C40.267 25.5562 36.1665 29.6566 36.1665 34.6968C36.1665 39.7369 40.2668 43.8374 45.3071 43.8374ZM45.3071 27.6069C49.2164 27.6069 52.3969 30.7874 52.3969 34.6968C52.3969 38.6061 49.2164 41.7866 45.3071 41.7866C41.3978 41.7866 38.2173 38.6061 38.2173 34.6968C38.2173 30.7874 41.3976 27.6069 45.3071 27.6069Z" fill="#CEAD66"/>
</svg>
