<svg width="70" height="70" viewBox="0 0 70 70" fill="none" xmlns="http://www.w3.org/2000/svg">
<path d="M66.7827 20.8232H55.8232C55.2569 20.8232 54.7978 21.2823 54.7978 21.8486C54.7978 22.4149 55.2569 22.874 55.8232 22.874H66.7827C67.426 22.874 67.9492 23.3974 67.9492 24.0405V45.9595C67.9492 46.6028 67.4258 47.126 66.7827 47.126H48.1514C47.5851 47.126 47.126 47.5851 47.126 48.1514V66.7826C47.126 67.4259 46.6026 67.9491 45.9595 67.9491H36.0254V36.0425C40.1692 35.962 44.3346 34.1011 47.6004 30.8353C51.1511 27.2845 53.0424 22.6708 52.789 18.1772C52.7596 17.6563 52.3439 17.2405 51.823 17.2111C47.3297 16.9596 42.7157 18.8489 39.1649 22.3997C35.6243 25.9403 33.7343 30.5378 33.9747 35.0191V46.6454L22.6371 35.3076C22.2366 34.9072 21.5873 34.9072 21.187 35.3076C20.7866 35.7081 20.7866 36.3573 21.187 36.7577L26.7695 42.3404C24.1955 41.8616 21.6439 40.5027 19.6096 38.4681C17.1381 35.9968 15.6636 32.763 15.5523 29.6517C18.6635 29.7631 21.8976 31.2378 24.3687 33.709C25.251 34.5913 26.0117 35.5692 26.6295 36.6156C26.9175 37.1033 27.5462 37.2652 28.0338 36.9772C28.5213 36.6893 28.6833 36.0605 28.3954 35.573C27.6899 34.3782 26.8231 33.2631 25.8188 32.2591C22.6397 29.0799 18.5086 27.3876 14.4802 27.6138C13.9593 27.6432 13.5435 28.0589 13.5141 28.5798C13.2871 32.6066 14.9803 36.7395 18.1594 39.9185C21.1493 42.9085 24.9826 44.584 28.7781 44.584C28.8553 44.584 28.9324 44.5821 29.0095 44.5807L32.6561 48.2273C33.4236 48.9948 33.883 49.9878 33.9746 51.0568V67.9492H24.0405C23.3972 67.9492 22.874 67.4259 22.874 66.7827V48.1514C22.874 47.5851 22.4149 47.126 21.8486 47.126H3.21727C2.574 47.126 2.05078 46.6026 2.05078 45.9595V24.0405C2.05078 23.3972 2.57414 22.874 3.21727 22.874H21.8485C22.4148 22.874 22.8739 22.4149 22.8739 21.8486V3.21727C22.8739 2.574 23.3972 2.05078 24.0403 2.05078H45.9594C46.6026 2.05078 47.1259 2.57414 47.1259 3.21727V14.1764C47.1259 14.7427 47.585 15.2018 48.1512 15.2018C48.7175 15.2018 49.1766 14.7427 49.1766 14.1764V3.21727C49.1768 1.44334 47.7336 0 45.9595 0H24.0405C22.2664 0 20.8232 1.44334 20.8232 3.21727V20.8231H3.21727C1.44334 20.8232 0 22.2664 0 24.0405V45.9595C0 47.7336 1.44334 49.1768 3.21727 49.1768H20.8231V66.7826C20.8231 68.5567 22.2664 69.9999 24.0403 69.9999H45.9594C47.7334 69.9999 49.1766 68.5565 49.1766 66.7826V49.1768H66.7825C68.5565 49.1768 69.9997 47.7334 69.9997 45.9595V24.0405C70 22.2664 68.5566 20.8232 66.7827 20.8232ZM40.6149 23.8498C43.454 21.0108 47.1822 19.3315 50.7561 19.2438C50.6685 22.8178 48.9892 26.5461 46.1502 29.3851C43.7311 31.8041 40.6666 33.3803 37.6019 33.8481L43.3967 28.0533C43.7972 27.6529 43.7972 27.0036 43.3967 26.6033C42.9963 26.2028 42.347 26.2028 41.9467 26.6033L36.1519 32.3981C36.6197 29.3334 38.1959 26.2687 40.6149 23.8498Z" fill="#CEAD66"/>
</svg>
