<svg width="13" height="13" viewBox="0 0 13 13" fill="none" xmlns="http://www.w3.org/2000/svg">
<path d="M10.9356 0H1.81442C0.784614 0 0 0.784616 0 1.81442V10.9356C0 11.9654 0.784614 12.75 1.81442 12.75H10.9356C11.9654 12.75 12.75 11.9654 12.75 10.9356V1.81442C12.75 0.784616 11.9654 0 10.9356 0ZM6.375 10.2C8.48365 10.2 10.2 8.53269 10.2 6.52211C10.2 6.17885 10.151 5.78654 10.0529 5.49231H11.1317V10.6904C11.1317 10.9356 10.9356 11.1808 10.6413 11.1808H2.10866C1.86346 11.1808 1.61827 10.9846 1.61827 10.6904V5.44327H2.74616C2.64808 5.78654 2.59904 6.12981 2.59904 6.47308C2.55 8.53269 4.26635 10.2 6.375 10.2ZM6.375 8.72885C5.00192 8.72885 3.92308 7.65 3.92308 6.32596C3.92308 5.00192 5.00192 3.92308 6.375 3.92308C7.74808 3.92308 8.82692 5.00192 8.82692 6.32596C8.82692 7.69904 7.74808 8.72885 6.375 8.72885ZM11.0827 3.48173C11.0827 3.77596 10.8375 4.02115 10.5433 4.02115H9.17019C8.87596 4.02115 8.63077 3.77596 8.63077 3.48173V2.15769C8.63077 1.86346 8.87596 1.61827 9.17019 1.61827H10.5433C10.8375 1.61827 11.0827 1.86346 11.0827 2.15769V3.48173Z" fill="#9A711A"/>
</svg>
