<svg width="70" height="70" viewBox="0 0 70 70" fill="none" xmlns="http://www.w3.org/2000/svg">
<g clip-path="url(#clip0)">
<path d="M60.8773 29.5947C60.5255 28.7565 60.1933 27.9647 60.1933 27.2947C60.1933 26.6243 60.5255 25.8326 60.8773 24.9942C61.3865 23.7809 61.913 22.5262 61.616 21.2203C61.3078 19.865 60.2198 18.9048 59.2599 18.0578C58.5993 17.4748 57.9753 16.9241 57.7033 16.3604C57.4215 15.7767 57.3774 14.9319 57.3306 14.0375C57.2644 12.7725 57.1895 11.3388 56.3393 10.2744C55.4851 9.20486 54.1002 8.81344 52.878 8.46822C52.0197 8.22568 51.2088 7.99654 50.7076 7.59637C50.2117 7.20043 49.811 6.4642 49.3868 5.68477C48.7776 4.56545 48.0871 3.29684 46.8463 2.69814C45.6272 2.10998 44.2783 2.34514 42.9736 2.57277C42.0866 2.7274 41.2486 2.87355 40.6078 2.72795C40.0082 2.59164 39.3377 2.10984 38.628 1.59961C37.5847 0.849844 36.4023 0 35.0001 0C33.5977 0 32.4152 0.849844 31.3718 1.59961C30.6619 2.10984 29.9913 2.59164 29.3915 2.72809C28.7506 2.87383 27.9126 2.72768 27.0256 2.57305C25.721 2.34568 24.3719 2.11053 23.1526 2.69869C21.9118 3.29738 21.2214 4.56627 20.612 5.68572C20.1878 6.46529 19.787 7.20152 19.2912 7.59746C18.7899 7.99777 17.9791 8.22691 17.1207 8.46945C15.8988 8.81481 14.5135 9.20623 13.6594 10.2759C12.8096 11.3403 12.7347 12.7739 12.6686 14.0387C12.6219 14.9331 12.5779 15.7778 12.2962 16.3615C12.0243 16.9251 11.4003 17.4758 10.7397 18.0588C9.77977 18.9059 8.69176 19.8659 8.38387 21.2212C8.08705 22.5269 8.61356 23.7814 9.1227 24.9946C9.47448 25.8327 9.8067 26.6245 9.8067 27.2945C9.8067 27.9649 9.47448 28.7566 9.1227 29.595C8.61356 30.8083 8.08705 32.063 8.38401 33.3689C8.69217 34.7242 9.78018 35.6843 10.7401 36.5314C11.4007 37.1144 12.0247 37.6651 12.2968 38.2287C12.5785 38.8125 12.6226 39.6573 12.6695 40.5517C12.7356 41.8167 12.8106 43.2504 13.6607 44.3148C14.5149 45.3843 15.8998 45.7758 17.122 46.121C17.9804 46.3634 18.7912 46.5925 19.2924 46.9927C19.6152 47.2504 19.8975 47.6526 20.1723 48.1167L13.261 64.264C13.1135 64.6086 13.1659 65.0063 13.3976 65.3011C13.6294 65.5957 14.0036 65.7407 14.3732 65.6787L20.112 64.7169L23.4198 69.5535C23.612 69.8346 23.9298 70 24.2659 70C24.2992 70 24.3327 69.9984 24.3662 69.9951C24.7386 69.9586 25.0615 69.722 25.2089 69.3781L32.0264 53.4507C32.9053 54.0493 33.8827 54.5892 35.0001 54.5892C36.1175 54.5892 37.0949 54.0494 37.9741 53.451L44.7915 69.3781C44.9388 69.7222 45.2617 69.9586 45.6343 69.9951C45.6678 69.9984 45.7011 70 45.7345 70C46.0707 70 46.3884 69.8346 46.5806 69.5535L49.8884 64.7169L55.6272 65.6787C55.9969 65.7407 56.3711 65.596 56.6028 65.3011C56.8345 65.0063 56.8869 64.6086 56.7394 64.264L49.828 48.1176C50.1032 47.6528 50.3858 47.2497 50.709 46.9917C51.2102 46.5914 52.0211 46.3623 52.8794 46.1197C54.1014 45.7744 55.4865 45.383 56.3406 44.3134C57.1904 43.2491 57.2653 41.8154 57.3314 40.5505C57.3781 39.6561 57.4222 38.8114 57.7038 38.2277C57.9757 37.664 58.5997 37.1134 59.2603 36.5304C60.2202 35.6833 61.3081 34.7233 61.6161 33.3681C61.913 32.0623 61.3865 30.8078 60.8773 29.5947ZM24.0583 66.8544L21.4349 63.0185C21.2095 62.6887 20.8128 62.5201 20.4191 62.586L15.8847 63.346L21.4568 50.3286C21.8982 50.9685 22.4328 51.5432 23.154 51.8912C23.5453 52.08 23.95 52.1832 24.3621 52.2298L21.5019 58.8678C21.2778 59.3879 21.5178 59.9911 22.0378 60.2152C22.17 60.2722 22.3077 60.2991 22.4431 60.2991C22.8401 60.2991 23.2181 60.067 23.3852 59.6792L26.6598 52.0797C26.7824 52.0589 26.9048 52.0379 27.0267 52.0166C27.9139 51.8618 28.7515 51.7158 29.3925 51.8614C29.681 51.927 29.9861 52.073 30.3039 52.2632L24.0583 66.8544ZM49.5812 62.586C49.1874 62.5203 48.7908 62.6887 48.5654 63.0185L45.942 66.8544L39.6966 52.2636C40.0146 52.0732 40.32 51.9269 40.6088 51.8613C41.2497 51.7155 42.0875 51.8615 42.9748 52.0162C43.0962 52.0373 43.2183 52.0584 43.3404 52.079L46.6152 59.6792C46.7823 60.0671 47.1603 60.2991 47.5574 60.2991C47.6928 60.2991 47.8304 60.2722 47.9626 60.2152C48.4827 59.9911 48.7226 59.3878 48.4985 58.8678L45.6381 52.2294C46.0508 52.1828 46.4559 52.0796 46.8476 51.8906C47.5683 51.543 48.1027 50.9688 48.5439 50.3295L54.1156 63.3462L49.5812 62.586ZM59.6164 32.9135C59.455 33.6234 58.7013 34.2885 57.9034 34.9928C57.1193 35.6847 56.3084 36.4001 55.8567 37.3367C55.3957 38.2922 55.3386 39.3859 55.2833 40.4437C55.2285 41.493 55.1768 42.4844 54.738 43.0339C54.2949 43.5888 53.3365 43.8596 52.3216 44.1463C51.3051 44.4336 50.2539 44.7307 49.429 45.3894C48.6095 46.0439 48.0896 46.9993 47.5866 47.9233C47.0805 48.8533 46.6024 49.7317 45.9561 50.0436C45.3306 50.3453 44.3572 50.1755 43.3266 49.996C42.2792 49.8135 41.196 49.6247 40.1538 49.8616C39.149 50.0901 38.2758 50.7176 37.4313 51.3245C36.5624 51.9489 35.7417 52.5387 34.9997 52.5387C34.258 52.5387 33.4376 51.949 32.5689 51.3246C31.7245 50.7177 30.8514 50.0902 29.8467 49.8617C29.4972 49.7823 29.1434 49.7507 28.7876 49.7507C28.0823 49.7507 27.3701 49.8749 26.674 49.9963C25.6435 50.1759 24.6701 50.3459 24.0447 50.0441C23.3985 49.7324 22.9205 48.854 22.4144 47.9242C21.9115 47.0002 21.3914 46.0447 20.5719 45.3904C19.7471 44.7318 18.6959 44.4348 17.6794 44.1476C16.6647 43.8609 15.7061 43.59 15.263 43.0352C14.8241 42.4855 14.7723 41.4943 14.7174 40.4447C14.6621 39.387 14.6048 38.2933 14.1438 37.3376C13.692 36.4012 12.8812 35.6858 12.097 34.9938C11.299 34.2896 10.5451 33.6245 10.3838 32.9145C10.2327 32.25 10.6121 31.3459 11.0138 30.3886C11.4286 29.4 11.8575 28.3778 11.8575 27.2947C11.8575 26.2117 11.4285 25.1896 11.0137 24.2011C10.612 23.2441 10.2326 22.3401 10.3835 21.6759C10.5448 20.9661 11.2986 20.3008 12.0966 19.5967C12.8807 18.9048 13.6916 18.1893 14.1431 17.2529C14.6042 16.2973 14.6613 15.2037 14.7165 14.1459C14.7714 13.0964 14.8231 12.1052 15.2619 11.5557C15.705 11.0008 16.6636 10.73 17.6783 10.4431C18.6948 10.1559 19.746 9.85893 20.5707 9.20021C21.3902 8.54574 21.9101 7.59035 22.4131 6.66613C22.9193 5.73617 23.3974 4.85775 24.0436 4.5459C24.669 4.24402 25.6424 4.41383 26.6731 4.59348C27.7206 4.776 28.8035 4.96494 29.846 4.72787C30.8507 4.49941 31.724 3.87188 32.5685 3.26498C33.4374 2.64059 34.2582 2.05078 35.0001 2.05078C35.7418 2.05078 36.5623 2.64045 37.431 3.26484C38.2754 3.87174 39.1485 4.49928 40.1532 4.72773C41.1956 4.96481 42.2786 4.77572 43.3259 4.59307C44.3565 4.41342 45.3297 4.24361 45.9551 4.54521C46.6014 4.85693 47.0794 5.73535 47.5854 6.66518C48.0884 7.58912 48.6083 8.54465 49.4279 9.19898C50.2528 9.85756 51.304 10.1545 52.3205 10.4418C53.3352 10.7285 54.2939 10.9993 54.737 11.5541C55.1759 12.1038 55.2277 13.0951 55.2826 14.1446C55.3379 15.2023 55.3952 16.2961 55.8562 17.2517C56.308 18.1881 57.1188 18.9036 57.903 19.5955C58.701 20.2997 59.4549 20.9649 59.6162 21.6748C59.7673 22.3392 59.3879 23.2434 58.9862 24.2007C58.5714 25.1892 58.1425 26.2116 58.1425 27.2947C58.1425 28.3778 58.5715 29.3999 58.9864 30.3883C59.3879 31.3454 59.7673 32.2492 59.6164 32.9135Z" fill="#CEAD66"/>
<path d="M45.8645 17.3753C45.8351 16.8544 45.4194 16.4386 44.8985 16.4092C42.1387 16.2547 39.3094 17.4097 37.1379 19.5812C36.5853 20.1339 36.0986 20.729 35.6825 21.3549C34.5456 23.0652 33.9749 25.0899 33.9749 27.1436V33.5755L32.7562 32.3568C32.7517 30.0199 31.7263 27.6657 29.894 25.8337C27.941 23.8805 25.3966 22.8417 22.9088 22.981C22.3879 23.0104 21.9721 23.4262 21.9427 23.9471C21.8026 26.4333 22.8423 28.9793 24.7954 30.9323C26.6215 32.7586 28.9661 33.7854 31.2955 33.7966L33.3133 35.8145C33.7399 36.241 33.9748 36.8081 33.9748 37.4113V41.481C33.9748 42.0425 34.4074 42.5321 34.9686 42.5489C35.5492 42.5664 36.0256 42.1007 36.0256 41.5239V28.2994C38.4266 28.1386 40.8073 27.0211 42.6925 25.136C44.864 22.9645 46.0201 20.1358 45.8645 17.3753ZM26.2455 29.4821C24.9936 28.2302 24.2006 26.6326 24.0207 25.0589C25.5945 25.2389 27.192 26.0318 28.444 27.2837C29.6959 28.5356 30.4889 30.1332 30.6689 31.7071C29.0952 31.5269 27.4973 30.7339 26.2455 29.4821ZM41.2425 23.6858C39.7719 25.1562 37.8819 26.072 36.032 26.2418C36.2018 24.3918 37.1174 22.502 38.5879 21.0314C40.0585 19.5609 41.9484 18.6451 43.7983 18.4755C43.6286 20.3254 42.713 22.2153 41.2425 23.6858Z" fill="#CEAD66"/>
<path d="M48.9709 14.9795C48.5266 15.3306 48.4508 15.9753 48.8018 16.4198C54.321 23.4072 53.7321 33.4274 47.4323 39.7272C41.1324 46.0271 31.1123 46.6159 24.1249 41.0966C23.6804 40.7458 23.0357 40.8214 22.6847 41.2657C22.3336 41.7101 22.4093 42.355 22.8537 42.7061C26.433 45.5333 30.7242 46.9252 35.0006 46.9252C40.0477 46.9252 45.074 44.9856 48.8823 41.1773C55.9176 34.142 56.5748 22.9521 50.4111 15.1486C50.06 14.7041 49.4153 14.6287 48.9709 14.9795Z" fill="#CEAD66"/>
<path d="M22.5676 14.8625C28.8674 8.5626 38.8874 7.97375 45.875 13.4931C46.3194 13.8439 46.9642 13.7683 47.3152 13.324C47.6663 12.8796 47.5905 12.2347 47.1462 11.8836C39.3426 5.71994 28.1527 6.37728 21.1175 13.4124C14.0823 20.4477 13.4251 31.6374 19.5888 39.4411C19.7911 39.6973 20.0912 39.831 20.3942 39.831C20.6167 39.831 20.841 39.7588 21.0291 39.6102C21.4734 39.2591 21.5492 38.6143 21.1982 38.1699C15.679 31.1823 16.2677 21.1623 22.5676 14.8625Z" fill="#CEAD66"/>
</g>
<defs>
<clipPath id="clip0">
<rect width="70" height="70" fill="white"/>
</clipPath>
</defs>
</svg>
