<svg width="70" height="70" viewBox="0 0 70 70" fill="none" xmlns="http://www.w3.org/2000/svg">
<path d="M59.7488 10.2512C53.1381 3.64068 44.3488 0 35 0C25.6512 0 16.8619 3.64068 10.2512 10.2512C3.64068 16.8619 0 25.6512 0 35C0 44.3488 3.64068 53.1381 10.2512 59.7488C16.8619 66.3593 25.6512 70 35 70C44.3488 70 53.1381 66.3593 59.7488 59.7488C66.3593 53.1381 70 44.3488 70 35C70 25.6512 66.3593 16.8619 59.7488 10.2512ZM58.2987 58.2987C52.0754 64.5219 43.8011 67.9492 35 67.9492C26.1989 67.9492 17.9246 64.5219 11.7013 58.2987C5.47805 52.0754 2.05078 43.8011 2.05078 35C2.05078 26.1989 5.47805 17.9246 11.7013 11.7013C17.9246 5.47805 26.1989 2.05078 35 2.05078C43.8011 2.05078 52.0754 5.47805 58.2987 11.7013C64.5219 17.9246 67.9492 26.1989 67.9492 35C67.9492 43.8011 64.5219 52.0754 58.2987 58.2987Z" fill="#CEAD66"/>
<path d="M56.6489 13.3512C50.8664 7.56851 43.1779 4.38379 35 4.38379C27.6701 4.38379 20.5742 7.02219 15.0196 11.8128C14.5907 12.1826 14.5429 12.8301 14.9128 13.259C15.2826 13.6879 15.9301 13.7356 16.359 13.3658C21.5414 8.89619 28.1615 6.43457 35 6.43457C43.1985 6.43457 50.6001 9.9075 55.8144 15.458L42.4876 27.0985C39.9179 24.7422 36.4674 25.2807 34.0688 25.904C33.5207 26.0465 33.1918 26.6062 33.3343 27.1543C33.4767 27.7024 34.0366 28.0312 34.5846 27.8889C34.7414 27.8481 34.8931 27.8122 35.0446 27.7768L28.096 33.8304C28.5361 32.3462 29.1407 30.7723 29.7576 29.1684C31.78 23.9098 33.8716 18.472 30.3005 14.901C29.9 14.5006 29.2507 14.5006 28.8504 14.901C28.45 15.3015 28.45 15.9507 28.8504 16.3511C29.9378 17.4384 30.2718 18.862 30.159 20.5012L19.117 30.1205C18.0539 29.9975 17.113 29.6118 16.3513 28.8502C15.9509 28.4497 15.3016 28.4497 14.9013 28.8502C14.5008 29.2506 14.5008 29.8999 14.9013 30.3003C16.2983 31.6973 18.0099 32.2163 19.874 32.2163C22.1343 32.2163 24.6183 31.4522 27.0355 30.565C25.5983 34.4753 24.5491 38.3321 26.229 41.2999L12.8357 52.9982C8.83604 48.0824 6.43457 41.8167 6.43457 35C6.43457 28.1615 8.89619 21.5414 13.3659 16.3588C13.7358 15.93 13.6879 15.2825 13.2592 14.9126C12.8303 14.5428 12.1828 14.5907 11.8129 15.0194C7.02219 20.5742 4.38379 27.6701 4.38379 35C4.38379 43.1779 7.56838 50.8664 13.351 56.6489C19.1337 62.4316 26.8221 65.6161 34.9999 65.6161C42.3299 65.6161 49.4258 62.9777 54.9805 58.1871C55.4094 57.8173 55.4571 57.1698 55.0873 56.7409C54.7173 56.312 54.07 56.2642 53.6411 56.6341C48.4586 61.1037 41.8384 63.5654 34.9999 63.5654C26.8014 63.5654 19.3999 60.0924 14.1856 54.5419L27.5126 42.9011C28.8761 44.1555 30.4945 44.6339 32.2627 44.6339C34.4887 44.6339 36.951 43.8768 39.4344 42.9642C37.7588 47.5231 36.6102 52.0095 39.6995 55.0988C39.8996 55.2991 40.1621 55.3992 40.4245 55.3992C40.6869 55.3992 40.9494 55.2991 41.1495 55.0988C41.55 54.6983 41.55 54.0491 41.1495 53.6487C40.0756 52.5748 39.7357 51.1732 39.8362 49.5595L50.9543 39.8738C51.9861 40.0075 52.8978 40.3987 53.6488 41.1496C54.0492 41.5501 54.6985 41.5501 55.0988 41.1496C55.4992 40.7492 55.4992 40.1001 55.0988 39.6996C52.0095 36.6103 47.5233 37.7587 42.9649 39.4342C44.4019 35.5242 45.4508 31.6677 43.7711 28.7L57.1643 17.0017C61.1639 21.9177 63.5654 28.1832 63.5654 35C63.5654 41.8386 61.1039 48.4588 56.6341 53.6412C56.2643 54.0701 56.3122 54.7176 56.7409 55.0874C56.9347 55.2545 57.173 55.3363 57.4102 55.3363C57.6981 55.3363 57.9844 55.2157 58.1871 54.9805C62.9778 49.4259 65.6162 42.3299 65.6162 34.9999C65.6163 26.8222 62.4316 19.1337 56.6489 13.3512ZM28.0069 28.0069C26.1694 28.7128 24.316 29.41 22.5909 29.814L29.4967 23.798C29.0964 25.1425 28.5624 26.5603 28.0069 28.0069ZM27.4402 37.1218L38.5188 27.4698C39.4765 27.5841 40.266 27.9128 40.9282 28.4606L27.8326 39.8991C27.4786 39.0764 27.3725 38.141 27.4402 37.1218ZM35.1291 42.1882L41.8573 36.3266C41.4616 37.6327 40.9437 39.0059 40.406 40.4062C38.5706 41.111 36.7809 41.7826 35.1291 42.1882ZM41.9932 41.9932C43.9182 41.2541 45.7921 40.5523 47.5099 40.1549L40.4807 46.2786C40.8833 44.9113 41.4272 43.4673 41.9932 41.9932ZM42.5499 33.0034L31.6004 42.5423C30.6492 42.4437 29.7967 42.1343 29.0726 41.5387L42.1672 30.101C42.5358 30.957 42.6351 31.9358 42.5499 33.0034Z" fill="#CEAD66"/>
</svg>
