<svg width="40" height="40" viewBox="0 0 40 40" fill="none" xmlns="http://www.w3.org/2000/svg">
<path opacity="0.2" d="M14.4494 19.5022C15.746 22.153 17.8948 24.292 20.5515 25.5765C20.7459 25.6686 20.9609 25.7085 21.1754 25.6923C21.3899 25.6761 21.5964 25.6043 21.7747 25.484L25.6866 22.8755C25.8596 22.7601 26.0586 22.6897 26.2657 22.6707C26.4728 22.6517 26.6813 22.6846 26.8724 22.7666L34.1907 25.903C34.4393 26.0086 34.6469 26.1921 34.7821 26.4259C34.9173 26.6597 34.9729 26.9312 34.9405 27.1993C34.7092 29.0093 33.826 30.673 32.4564 31.8787C31.0869 33.0845 29.3247 33.7497 27.5 33.7498C21.8641 33.7498 16.4591 31.511 12.474 27.5258C8.48883 23.5407 6.25 18.1356 6.25 12.4998C6.2501 10.6751 6.9153 8.91293 8.12106 7.54334C9.32683 6.17376 10.9905 5.29063 12.8005 5.05932C13.0686 5.02687 13.34 5.08244 13.5739 5.21767C13.8077 5.35289 13.9912 5.56044 14.0968 5.80904L17.236 13.1337C17.3172 13.3232 17.3502 13.5298 17.3323 13.7351C17.3143 13.9404 17.2458 14.1382 17.1329 14.3106L14.5335 18.2825C14.4152 18.4611 14.3453 18.6674 14.3305 18.8812C14.3158 19.095 14.3567 19.309 14.4494 19.5022Z" fill="white"/>
<path d="M14.4494 19.5022C15.746 22.153 17.8948 24.292 20.5515 25.5765C20.7459 25.6686 20.9609 25.7085 21.1754 25.6923C21.3899 25.6761 21.5964 25.6043 21.7747 25.484L25.6866 22.8755C25.8596 22.7601 26.0586 22.6897 26.2657 22.6707C26.4728 22.6517 26.6813 22.6846 26.8724 22.7666L34.1907 25.903C34.4393 26.0086 34.6469 26.1921 34.7821 26.4259C34.9173 26.6597 34.9729 26.9312 34.9405 27.1993C34.7092 29.0093 33.826 30.673 32.4564 31.8787C31.0869 33.0845 29.3247 33.7497 27.5 33.7498C21.8641 33.7498 16.4591 31.511 12.474 27.5258C8.48883 23.5407 6.25 18.1356 6.25 12.4998C6.2501 10.6751 6.9153 8.91293 8.12106 7.54334C9.32683 6.17376 10.9905 5.29063 12.8005 5.05932C13.0686 5.02687 13.34 5.08244 13.5739 5.21767C13.8077 5.35289 13.9912 5.56044 14.0968 5.80904L17.236 13.1337C17.3172 13.3232 17.3502 13.5298 17.3323 13.7351C17.3143 13.9404 17.2458 14.1382 17.1329 14.3106L14.5335 18.2825C14.4152 18.4611 14.3453 18.6674 14.3305 18.8812C14.3158 19.095 14.3567 19.309 14.4494 19.5022V19.5022Z" stroke="white" stroke-width="2" stroke-linecap="round" stroke-linejoin="round"/>
<path d="M24.9092 6.25C27.0282 6.8199 28.9603 7.9366 30.512 9.48823C32.0636 11.0399 33.1803 12.972 33.7502 15.091" stroke="white" stroke-width="2" stroke-linecap="round" stroke-linejoin="round"/>
<path d="M23.6147 11.0811C24.8862 11.423 26.0454 12.093 26.9764 13.024C27.9074 13.955 28.5774 15.1142 28.9194 16.3857" stroke="white" stroke-width="2" stroke-linecap="round" stroke-linejoin="round"/>
</svg>
