<svg width="24" height="24" viewBox="0 0 24 24" fill="none" xmlns="http://www.w3.org/2000/svg">
<path d="M12 3C10.1794 3.00002 8.40167 3.55216 6.90142 4.58354C5.40117 5.61492 4.24899 7.07703 3.59698 8.77684C2.94497 10.4767 2.82379 12.3342 3.24946 14.1044C3.67512 15.8745 4.62759 17.4739 5.98114 18.6914V18.6913C6.54583 17.5804 7.40707 16.6474 8.46942 15.9959C9.53178 15.3444 10.7538 14.9997 12 15C11.2583 15 10.5333 14.7801 9.91661 14.368C9.29993 13.956 8.81928 13.3703 8.53545 12.6851C8.25162 11.9998 8.17736 11.2458 8.32206 10.5184C8.46675 9.79098 8.8239 9.1228 9.34835 8.59835C9.8728 8.0739 10.541 7.71675 11.2684 7.57205C11.9958 7.42736 12.7498 7.50162 13.4351 7.78545C14.1203 8.06928 14.706 8.54993 15.118 9.16661C15.5301 9.7833 15.75 10.5083 15.75 11.25C15.75 12.2446 15.3549 13.1984 14.6516 13.9016C13.9484 14.6049 12.9946 15 12 15C13.2462 14.9997 14.4682 15.3444 15.5306 15.9959C16.5929 16.6474 17.4542 17.5804 18.0189 18.6913C19.3724 17.4738 20.3249 15.8744 20.7505 14.1043C21.1762 12.3342 21.055 10.4766 20.403 8.77679C19.751 7.07698 18.5988 5.61487 17.0986 4.58351C15.5983 3.55214 13.8206 3 12 3Z" fill="#F8F1E3"/>
<path d="M12 21C16.9706 21 21 16.9706 21 12C21 7.02944 16.9706 3 12 3C7.02944 3 3 7.02944 3 12C3 16.9706 7.02944 21 12 21Z" stroke="#261D1D" stroke-width="1.5" stroke-miterlimit="10"/>
<path d="M12 15C14.0711 15 15.75 13.3211 15.75 11.25C15.75 9.17893 14.0711 7.5 12 7.5C9.92893 7.5 8.25 9.17893 8.25 11.25C8.25 13.3211 9.92893 15 12 15Z" stroke="#261D1D" stroke-width="1.5" stroke-miterlimit="10"/>
<path d="M5.98096 18.6913C6.5459 17.5806 7.40719 16.6478 8.46948 15.9963C9.53177 15.3448 10.7536 15 11.9998 15C13.2459 15 14.4678 15.3448 15.5301 15.9963C16.5924 16.6478 17.4537 17.5806 18.0186 18.6913" stroke="#261D1D" stroke-width="1.5" stroke-linecap="round" stroke-linejoin="round"/>
</svg>
