<svg width="17" height="10" viewBox="0 0 17 10" fill="none" xmlns="http://www.w3.org/2000/svg">
<path d="M16.3546 8.83668C16.3546 8.77442 16.2924 8.77442 16.2924 8.71215C16.0433 8.21401 15.4829 7.59135 14.7357 6.90641C14.3621 6.59507 14.1753 6.346 14.0507 6.22146C13.8639 5.9724 13.864 5.7856 13.9262 5.53653C13.9885 5.34973 14.2375 5.03839 14.6734 4.47798C14.9225 4.16664 15.047 3.97985 15.2338 3.79305C16.1678 2.5477 16.6037 1.73822 16.4792 1.36462L16.4169 1.30236C16.3546 1.24009 16.2924 1.17783 16.1678 1.17783C16.0433 1.11556 15.8565 1.11556 15.6697 1.17783H13.3035C13.2413 1.17783 13.2413 1.17783 13.1167 1.17783C13.0545 1.17783 12.9922 1.17783 12.9922 1.17783H12.9299H12.8677L12.8054 1.24009C12.7431 1.30236 12.7431 1.30235 12.7431 1.36462C12.4941 2.04956 12.1827 2.60996 11.8714 3.23264C11.6846 3.54397 11.4978 3.85531 11.311 4.10438C11.1242 4.35345 10.9996 4.54025 10.8751 4.66478C10.7506 4.78932 10.626 4.85159 10.5638 4.97612C10.5015 5.03839 10.377 5.10066 10.377 5.03839C10.3147 5.03839 10.2524 5.03839 10.2524 4.97612C10.1902 4.91385 10.1279 4.85158 10.0656 4.78932C10.0034 4.72705 10.0034 4.60252 9.9411 4.47798C9.9411 4.35345 9.9411 4.22891 9.9411 4.16664C9.9411 4.10438 9.9411 3.91758 9.9411 3.79305C9.9411 3.60625 9.9411 3.48171 9.9411 3.41944C9.9411 3.23264 9.9411 2.98358 9.9411 2.73451C9.9411 2.48544 9.9411 2.29863 9.9411 2.1741C9.9411 2.04956 9.9411 1.86276 9.9411 1.73823C9.9411 1.55143 9.9411 1.42689 9.9411 1.36462C9.9411 1.30235 9.87885 1.17782 9.87885 1.11556C9.81658 1.05329 9.7543 0.99102 9.69204 0.928752C9.62977 0.866485 9.50524 0.866487 9.44297 0.80422C9.13164 0.741953 8.75804 0.679688 8.32217 0.679688C7.3259 0.679688 6.64095 0.741957 6.39188 0.866491C6.26735 0.928758 6.14282 0.991022 6.08055 1.11556C5.95601 1.24009 5.95601 1.30236 6.01828 1.30236C6.32961 1.36463 6.57869 1.48916 6.70322 1.67596L6.76549 1.8005C6.82776 1.86277 6.82775 1.98729 6.89001 2.1741C6.95228 2.3609 6.95228 2.5477 6.95228 2.79677C6.95228 3.17037 6.95228 3.54398 6.95228 3.79305C6.95228 4.10438 6.89001 4.29118 6.89001 4.47798C6.89001 4.66478 6.82776 4.78932 6.76549 4.85159C6.70322 4.97612 6.70322 5.03839 6.64095 5.03839C6.64095 5.03839 6.64094 5.10065 6.57868 5.10065C6.51641 5.10065 6.45415 5.16292 6.32961 5.16292C6.26735 5.16292 6.14282 5.10066 6.08055 5.03839C5.95601 4.97612 5.83148 4.85159 5.76921 4.72706C5.64468 4.60252 5.52014 4.41571 5.39561 4.16664C5.27107 3.91758 5.08426 3.66851 4.95973 3.29491L4.8352 3.04584C4.77294 2.92131 4.6484 2.67224 4.52387 2.3609C4.39933 2.04956 4.2748 1.8005 4.15026 1.48916C4.08799 1.36463 4.02573 1.30236 3.96347 1.24009H3.9012C3.9012 1.24009 3.83892 1.17783 3.77665 1.17783C3.71439 1.17783 3.65213 1.11556 3.58986 1.11556H1.34824C1.09917 1.11556 0.974636 1.17782 0.912369 1.24009L0.850098 1.30236C0.850098 1.30236 0.850098 1.36462 0.850098 1.42689C0.850098 1.48916 0.850101 1.55142 0.912369 1.67596C1.2237 2.42316 1.59731 3.17037 1.97091 3.91758C2.34451 4.60252 2.71812 5.22519 2.96719 5.66106C3.27852 6.09693 3.52759 6.5328 3.83892 6.90641C4.15026 7.28001 4.33706 7.52908 4.39933 7.65361C4.52386 7.77815 4.58612 7.84041 4.64839 7.90268L4.8352 8.08948C4.95974 8.21401 5.14654 8.40082 5.39561 8.58762C5.64467 8.77442 5.95601 8.96122 6.26734 9.14802C6.57868 9.33482 6.95229 9.45936 7.32589 9.5839C7.76176 9.70843 8.13536 9.7707 8.50896 9.70843H9.44297C9.62977 9.70843 9.75432 9.64616 9.87885 9.52163L9.9411 9.45936C9.9411 9.39709 10.0034 9.39709 10.0034 9.33482C10.0034 9.27256 10.0034 9.21029 10.0034 9.08576C10.0034 8.83669 10.0034 8.64989 10.0656 8.46309C10.1279 8.27629 10.1279 8.15175 10.1902 8.02722C10.2525 7.90268 10.3147 7.84041 10.377 7.77814C10.4392 7.71588 10.5015 7.65361 10.5015 7.65361H10.5638C10.6883 7.59134 10.8751 7.65361 10.9997 7.77814C11.1865 7.90268 11.3732 8.08948 11.4978 8.27628C11.6223 8.46309 11.8091 8.64989 12.0582 8.89896C12.3073 9.14802 12.4941 9.33483 12.6186 9.39709L12.8054 9.52163C12.9299 9.58389 13.0545 9.64616 13.2413 9.70843C13.4281 9.7707 13.5526 9.77069 13.6771 9.77069L15.7942 9.70843C15.981 9.70843 16.1678 9.64617 16.2924 9.5839C16.4169 9.52163 16.4792 9.45936 16.4792 9.33482C16.4792 9.27256 16.4792 9.14803 16.4792 9.08576C16.3546 8.96122 16.3546 8.89895 16.3546 8.83668Z" fill="#9A711A"/>
</svg>
